<mxfile host="app.diagrams.net" modified="2023-09-16T06:19:16.035Z" agent="Mozilla/5.0 (Windows NT 10.0; Win64; x64) AppleWebKit/537.36 (KHTML, like Gecko) Chrome/116.0.0.0 Safari/537.36 OpenWave/99.4.7763.64" etag="wYTbwBxirgvHFKjR1BNG" version="21.7.5" type="device">
  <diagram name="Page-1" id="03018318-947c-dd8e-b7a3-06fadd420f32">
    <mxGraphModel dx="2074" dy="790" grid="1" gridSize="10" guides="1" tooltips="1" connect="1" arrows="1" fold="1" page="1" pageScale="1" pageWidth="1100" pageHeight="850" background="none" math="0" shadow="0">
      <root>
        <mxCell id="0" />
        <mxCell id="1" parent="0" />
        <mxCell id="677b7b8949515195-1" value="" style="whiteSpace=wrap;html=1;rounded=0;shadow=0;labelBackgroundColor=none;strokeColor=#000000;strokeWidth=1;fillColor=none;fontFamily=Verdana;fontSize=12;fontColor=#000000;align=center;comic=1;" parent="1" vertex="1">
          <mxGeometry x="20" y="20" width="1060" height="810" as="geometry" />
        </mxCell>
        <mxCell id="4Q_4An0YlGyGXWKVLPmh-30" value="Inventory" style="shape=table;startSize=30;container=1;collapsible=0;childLayout=tableLayout;strokeColor=default;fontSize=16;" parent="1" vertex="1">
          <mxGeometry x="710" y="210" width="250" height="270" as="geometry" />
        </mxCell>
        <mxCell id="4Q_4An0YlGyGXWKVLPmh-31" value="" style="shape=tableRow;horizontal=0;startSize=0;swimlaneHead=0;swimlaneBody=0;strokeColor=inherit;top=0;left=0;bottom=0;right=0;collapsible=0;dropTarget=0;fillColor=none;points=[[0,0.5],[1,0.5]];portConstraint=eastwest;fontSize=16;" parent="4Q_4An0YlGyGXWKVLPmh-30" vertex="1">
          <mxGeometry y="30" width="250" height="80" as="geometry" />
        </mxCell>
        <mxCell id="4Q_4An0YlGyGXWKVLPmh-32" value="" style="shape=partialRectangle;html=1;whiteSpace=wrap;connectable=0;strokeColor=inherit;overflow=hidden;fillColor=none;top=0;left=0;bottom=0;right=0;pointerEvents=1;fontSize=16;" parent="4Q_4An0YlGyGXWKVLPmh-31" vertex="1">
          <mxGeometry width="83" height="80" as="geometry">
            <mxRectangle width="83" height="80" as="alternateBounds" />
          </mxGeometry>
        </mxCell>
        <mxCell id="4Q_4An0YlGyGXWKVLPmh-33" value="" style="shape=partialRectangle;html=1;whiteSpace=wrap;connectable=0;strokeColor=inherit;overflow=hidden;fillColor=none;top=0;left=0;bottom=0;right=0;pointerEvents=1;fontSize=16;" parent="4Q_4An0YlGyGXWKVLPmh-31" vertex="1">
          <mxGeometry x="83" width="84" height="80" as="geometry">
            <mxRectangle width="84" height="80" as="alternateBounds" />
          </mxGeometry>
        </mxCell>
        <mxCell id="4Q_4An0YlGyGXWKVLPmh-34" value="" style="shape=partialRectangle;html=1;whiteSpace=wrap;connectable=0;strokeColor=inherit;overflow=hidden;fillColor=none;top=0;left=0;bottom=0;right=0;pointerEvents=1;fontSize=16;" parent="4Q_4An0YlGyGXWKVLPmh-31" vertex="1">
          <mxGeometry x="167" width="83" height="80" as="geometry">
            <mxRectangle width="83" height="80" as="alternateBounds" />
          </mxGeometry>
        </mxCell>
        <mxCell id="4Q_4An0YlGyGXWKVLPmh-35" style="shape=tableRow;horizontal=0;startSize=0;swimlaneHead=0;swimlaneBody=0;strokeColor=inherit;top=0;left=0;bottom=0;right=0;collapsible=0;dropTarget=0;fillColor=none;points=[[0,0.5],[1,0.5]];portConstraint=eastwest;fontSize=16;" parent="4Q_4An0YlGyGXWKVLPmh-30" vertex="1">
          <mxGeometry y="110" width="250" height="80" as="geometry" />
        </mxCell>
        <mxCell id="4Q_4An0YlGyGXWKVLPmh-36" style="shape=partialRectangle;html=1;whiteSpace=wrap;connectable=0;strokeColor=inherit;overflow=hidden;fillColor=none;top=0;left=0;bottom=0;right=0;pointerEvents=1;fontSize=16;" parent="4Q_4An0YlGyGXWKVLPmh-35" vertex="1">
          <mxGeometry width="83" height="80" as="geometry">
            <mxRectangle width="83" height="80" as="alternateBounds" />
          </mxGeometry>
        </mxCell>
        <mxCell id="4Q_4An0YlGyGXWKVLPmh-37" style="shape=partialRectangle;html=1;whiteSpace=wrap;connectable=0;strokeColor=inherit;overflow=hidden;fillColor=none;top=0;left=0;bottom=0;right=0;pointerEvents=1;fontSize=16;" parent="4Q_4An0YlGyGXWKVLPmh-35" vertex="1">
          <mxGeometry x="83" width="84" height="80" as="geometry">
            <mxRectangle width="84" height="80" as="alternateBounds" />
          </mxGeometry>
        </mxCell>
        <mxCell id="4Q_4An0YlGyGXWKVLPmh-38" style="shape=partialRectangle;html=1;whiteSpace=wrap;connectable=0;strokeColor=inherit;overflow=hidden;fillColor=none;top=0;left=0;bottom=0;right=0;pointerEvents=1;fontSize=16;" parent="4Q_4An0YlGyGXWKVLPmh-35" vertex="1">
          <mxGeometry x="167" width="83" height="80" as="geometry">
            <mxRectangle width="83" height="80" as="alternateBounds" />
          </mxGeometry>
        </mxCell>
        <mxCell id="4Q_4An0YlGyGXWKVLPmh-39" style="shape=tableRow;horizontal=0;startSize=0;swimlaneHead=0;swimlaneBody=0;strokeColor=inherit;top=0;left=0;bottom=0;right=0;collapsible=0;dropTarget=0;fillColor=none;points=[[0,0.5],[1,0.5]];portConstraint=eastwest;fontSize=16;" parent="4Q_4An0YlGyGXWKVLPmh-30" vertex="1">
          <mxGeometry y="190" width="250" height="80" as="geometry" />
        </mxCell>
        <mxCell id="4Q_4An0YlGyGXWKVLPmh-40" style="shape=partialRectangle;html=1;whiteSpace=wrap;connectable=0;strokeColor=inherit;overflow=hidden;fillColor=none;top=0;left=0;bottom=0;right=0;pointerEvents=1;fontSize=16;" parent="4Q_4An0YlGyGXWKVLPmh-39" vertex="1">
          <mxGeometry width="83" height="80" as="geometry">
            <mxRectangle width="83" height="80" as="alternateBounds" />
          </mxGeometry>
        </mxCell>
        <mxCell id="4Q_4An0YlGyGXWKVLPmh-41" style="shape=partialRectangle;html=1;whiteSpace=wrap;connectable=0;strokeColor=inherit;overflow=hidden;fillColor=none;top=0;left=0;bottom=0;right=0;pointerEvents=1;fontSize=16;" parent="4Q_4An0YlGyGXWKVLPmh-39" vertex="1">
          <mxGeometry x="83" width="84" height="80" as="geometry">
            <mxRectangle width="84" height="80" as="alternateBounds" />
          </mxGeometry>
        </mxCell>
        <mxCell id="4Q_4An0YlGyGXWKVLPmh-42" style="shape=partialRectangle;html=1;whiteSpace=wrap;connectable=0;strokeColor=inherit;overflow=hidden;fillColor=none;top=0;left=0;bottom=0;right=0;pointerEvents=1;fontSize=16;" parent="4Q_4An0YlGyGXWKVLPmh-39" vertex="1">
          <mxGeometry x="167" width="83" height="80" as="geometry">
            <mxRectangle width="83" height="80" as="alternateBounds" />
          </mxGeometry>
        </mxCell>
        <mxCell id="gBUR-F1FtjLeRcrd6eLH-1" value="" style="endArrow=none;html=1;rounded=0;entryX=0.132;entryY=0.667;entryDx=0;entryDy=0;entryPerimeter=0;" parent="1" target="677b7b8949515195-1" edge="1">
          <mxGeometry width="50" height="50" relative="1" as="geometry">
            <mxPoint x="20" y="690" as="sourcePoint" />
            <mxPoint x="70" y="570" as="targetPoint" />
          </mxGeometry>
        </mxCell>
        <mxCell id="gBUR-F1FtjLeRcrd6eLH-4" value="" style="endArrow=none;html=1;rounded=0;entryX=1.001;entryY=0.667;entryDx=0;entryDy=0;entryPerimeter=0;" parent="1" target="677b7b8949515195-1" edge="1">
          <mxGeometry width="50" height="50" relative="1" as="geometry">
            <mxPoint x="160" y="560" as="sourcePoint" />
            <mxPoint x="570" y="400" as="targetPoint" />
          </mxGeometry>
        </mxCell>
        <mxCell id="gBUR-F1FtjLeRcrd6eLH-5" value="" style="endArrow=none;html=1;rounded=0;entryX=1.001;entryY=0.667;entryDx=0;entryDy=0;entryPerimeter=0;" parent="1" edge="1">
          <mxGeometry width="50" height="50" relative="1" as="geometry">
            <mxPoint x="20" y="690" as="sourcePoint" />
            <mxPoint x="1080" y="690" as="targetPoint" />
          </mxGeometry>
        </mxCell>
        <mxCell id="gBUR-F1FtjLeRcrd6eLH-6" value="" style="endArrow=none;html=1;rounded=0;entryX=0.132;entryY=0.667;entryDx=0;entryDy=0;entryPerimeter=0;" parent="1" edge="1">
          <mxGeometry width="50" height="50" relative="1" as="geometry">
            <mxPoint x="20" y="360" as="sourcePoint" />
            <mxPoint x="160" y="300" as="targetPoint" />
          </mxGeometry>
        </mxCell>
        <mxCell id="gBUR-F1FtjLeRcrd6eLH-7" value="" style="endArrow=none;html=1;rounded=0;" parent="1" edge="1">
          <mxGeometry width="50" height="50" relative="1" as="geometry">
            <mxPoint x="160" y="560" as="sourcePoint" />
            <mxPoint x="160" y="300" as="targetPoint" />
          </mxGeometry>
        </mxCell>
        <mxCell id="gBUR-F1FtjLeRcrd6eLH-8" value="" style="endArrow=none;html=1;rounded=0;entryX=-0.012;entryY=0.763;entryDx=0;entryDy=0;entryPerimeter=0;" parent="1" target="4Q_4An0YlGyGXWKVLPmh-31" edge="1">
          <mxGeometry width="50" height="50" relative="1" as="geometry">
            <mxPoint x="160" y="300" as="sourcePoint" />
            <mxPoint x="570" y="400" as="targetPoint" />
          </mxGeometry>
        </mxCell>
        <mxCell id="gBUR-F1FtjLeRcrd6eLH-9" value="" style="shape=cube;whiteSpace=wrap;html=1;boundedLbl=1;backgroundOutline=1;darkOpacity=0.05;darkOpacity2=0.1;fillColor=#f8cecc;strokeColor=#b85450;" parent="1" vertex="1">
          <mxGeometry x="110" y="560" width="80" height="80" as="geometry" />
        </mxCell>
        <mxCell id="gBUR-F1FtjLeRcrd6eLH-10" value="" style="shape=cube;whiteSpace=wrap;html=1;boundedLbl=1;backgroundOutline=1;darkOpacity=0.05;darkOpacity2=0.1;fillColor=#dae8fc;strokeColor=#6c8ebf;" parent="1" vertex="1">
          <mxGeometry x="200" y="560" width="80" height="80" as="geometry" />
        </mxCell>
        <mxCell id="gBUR-F1FtjLeRcrd6eLH-11" value="" style="shape=cube;whiteSpace=wrap;html=1;boundedLbl=1;backgroundOutline=1;darkOpacity=0.05;darkOpacity2=0.1;fillColor=#d5e8d4;strokeColor=#82b366;" parent="1" vertex="1">
          <mxGeometry x="500" y="500" width="80" height="80" as="geometry" />
        </mxCell>
        <mxCell id="gBUR-F1FtjLeRcrd6eLH-12" value="" style="endArrow=none;html=1;rounded=0;entryX=0.4;entryY=1.038;entryDx=0;entryDy=0;entryPerimeter=0;" parent="1" target="4Q_4An0YlGyGXWKVLPmh-39" edge="1">
          <mxGeometry width="50" height="50" relative="1" as="geometry">
            <mxPoint x="810" y="560" as="sourcePoint" />
            <mxPoint x="800" y="300" as="targetPoint" />
          </mxGeometry>
        </mxCell>
        <mxCell id="gBUR-F1FtjLeRcrd6eLH-13" value="" style="endArrow=none;html=1;rounded=0;" parent="1" edge="1">
          <mxGeometry width="50" height="50" relative="1" as="geometry">
            <mxPoint x="880" y="690" as="sourcePoint" />
            <mxPoint x="810" y="560" as="targetPoint" />
          </mxGeometry>
        </mxCell>
        <mxCell id="gBUR-F1FtjLeRcrd6eLH-15" value="" style="shape=cube;whiteSpace=wrap;html=1;boundedLbl=1;backgroundOutline=1;darkOpacity=0.05;darkOpacity2=0.1;fillColor=#fa6800;strokeColor=#C73500;fontColor=#000000;" parent="1" vertex="1">
          <mxGeometry x="960" y="570" width="80" height="80" as="geometry" />
        </mxCell>
        <mxCell id="4Q_4An0YlGyGXWKVLPmh-43" value="" style="endArrow=none;html=1;rounded=0;" parent="1" edge="1">
          <mxGeometry width="50" height="50" relative="1" as="geometry">
            <mxPoint x="960" y="311" as="sourcePoint" />
            <mxPoint x="1080" y="311" as="targetPoint" />
          </mxGeometry>
        </mxCell>
        <mxCell id="k07NY73X0u3xnpYRY29A-1" value="" style="shape=cube;whiteSpace=wrap;html=1;boundedLbl=1;backgroundOutline=1;darkOpacity=0.05;darkOpacity2=0.1;fillColor=#d80073;strokeColor=#A50040;fontColor=#ffffff;" parent="1" vertex="1">
          <mxGeometry x="720" y="250" width="60" height="60" as="geometry" />
        </mxCell>
        <mxCell id="bAcomUo5MVFyyi9kk67X-1" value="&quot;I got bitten by a strange green creature in the forest... I think I&#39;m growing scales!&quot;" style="strokeWidth=1;shadow=0;dashed=0;align=center;html=1;shape=mxgraph.mockup.containers.rrect;rSize=0;strokeColor=#666666;fontColor=#666666;fontSize=17;verticalAlign=top;whiteSpace=wrap;fillColor=#ffffff;spacingTop=32;" parent="1" vertex="1">
          <mxGeometry x="170" y="210" width="250" height="160" as="geometry" />
        </mxCell>
        <mxCell id="bAcomUo5MVFyyi9kk67X-2" value="Customer" style="strokeWidth=1;shadow=0;dashed=0;align=center;html=1;shape=mxgraph.mockup.containers.rrect;rSize=0;fontSize=17;fontColor=#666666;strokeColor=#666666;align=left;spacingLeft=8;fillColor=#ffffff;resizeWidth=1;whiteSpace=wrap;" parent="bAcomUo5MVFyyi9kk67X-1" vertex="1">
          <mxGeometry width="250" height="30" relative="1" as="geometry" />
        </mxCell>
        <mxCell id="bAcomUo5MVFyyi9kk67X-3" value="" style="shape=ellipse;strokeColor=#008cff;resizable=0;fillColor=none;html=1;" parent="bAcomUo5MVFyyi9kk67X-2" vertex="1">
          <mxGeometry x="1" y="0.5" width="20" height="20" relative="1" as="geometry">
            <mxPoint x="-25" y="-10" as="offset" />
          </mxGeometry>
        </mxCell>
        <mxCell id="bAcomUo5MVFyyi9kk67X-4" value="Sell" style="strokeWidth=1;shadow=0;dashed=0;align=center;html=1;shape=mxgraph.mockup.containers.rrect;rSize=0;fontSize=16;fontColor=#666666;strokeColor=#c4c4c4;resizable=0;whiteSpace=wrap;fillColor=#ffffff;" parent="bAcomUo5MVFyyi9kk67X-1" vertex="1">
          <mxGeometry x="0.5" y="1" width="120" height="25" relative="1" as="geometry">
            <mxPoint x="-60" y="-49" as="offset" />
          </mxGeometry>
        </mxCell>
        <mxCell id="bAcomUo5MVFyyi9kk67X-5" value="Which potion will you offer?" style="shape=table;startSize=30;container=1;collapsible=0;childLayout=tableLayout;strokeColor=default;fontSize=16;" parent="1" vertex="1">
          <mxGeometry x="170" y="370" width="250" height="110" as="geometry" />
        </mxCell>
        <mxCell id="bAcomUo5MVFyyi9kk67X-6" value="" style="shape=tableRow;horizontal=0;startSize=0;swimlaneHead=0;swimlaneBody=0;strokeColor=inherit;top=0;left=0;bottom=0;right=0;collapsible=0;dropTarget=0;fillColor=none;points=[[0,0.5],[1,0.5]];portConstraint=eastwest;fontSize=16;" parent="bAcomUo5MVFyyi9kk67X-5" vertex="1">
          <mxGeometry y="30" width="250" height="80" as="geometry" />
        </mxCell>
        <mxCell id="bAcomUo5MVFyyi9kk67X-7" value="" style="shape=partialRectangle;html=1;whiteSpace=wrap;connectable=0;overflow=hidden;top=0;left=0;bottom=0;right=0;pointerEvents=1;fontSize=16;fillColor=#000000;strokeColor=#666666;gradientColor=none;" parent="bAcomUo5MVFyyi9kk67X-6" vertex="1">
          <mxGeometry width="83" height="80" as="geometry">
            <mxRectangle width="83" height="80" as="alternateBounds" />
          </mxGeometry>
        </mxCell>
        <mxCell id="bAcomUo5MVFyyi9kk67X-8" value="" style="shape=partialRectangle;html=1;whiteSpace=wrap;connectable=0;strokeColor=inherit;overflow=hidden;fillColor=none;top=0;left=0;bottom=0;right=0;pointerEvents=1;fontSize=16;" parent="bAcomUo5MVFyyi9kk67X-6" vertex="1">
          <mxGeometry x="83" width="84" height="80" as="geometry">
            <mxRectangle width="84" height="80" as="alternateBounds" />
          </mxGeometry>
        </mxCell>
        <mxCell id="bAcomUo5MVFyyi9kk67X-9" value="" style="shape=partialRectangle;html=1;whiteSpace=wrap;connectable=0;overflow=hidden;top=0;left=0;bottom=0;right=0;pointerEvents=1;fontSize=16;fillColor=#000000;strokeColor=#666666;gradientColor=none;" parent="bAcomUo5MVFyyi9kk67X-6" vertex="1">
          <mxGeometry x="167" width="83" height="80" as="geometry">
            <mxRectangle width="83" height="80" as="alternateBounds" />
          </mxGeometry>
        </mxCell>
        <mxCell id="0T3QVXlau971SBjziM1B-1" value="End the day" style="strokeWidth=1;shadow=0;dashed=0;align=center;html=1;shape=mxgraph.mockup.buttons.button;strokeColor=#666666;fontColor=#ffffff;mainText=;buttonStyle=round;fontSize=17;fontStyle=1;fillColor=#008cff;whiteSpace=wrap;" parent="1" vertex="1">
          <mxGeometry x="465" y="40" width="150" height="50" as="geometry" />
        </mxCell>
        <object label="" Settings="" id="0T3QVXlau971SBjziM1B-2">
          <mxCell style="icon;html=1;image=img/clipart/Gear_128x128.png;fontSize=13;" parent="1" vertex="1">
            <mxGeometry x="40" y="35" width="60" height="60" as="geometry" />
          </mxCell>
        </object>
        <mxCell id="YlSVWggOryGg_Jt_vDkB-1" value="Inventory" style="strokeWidth=1;shadow=0;dashed=0;align=center;html=1;shape=mxgraph.mockup.buttons.button;strokeColor=#666666;fontColor=#ffffff;mainText=;buttonStyle=round;fontSize=17;fontStyle=1;fillColor=#008cff;whiteSpace=wrap;" vertex="1" parent="1">
          <mxGeometry x="970" y="50" width="90" height="30" as="geometry" />
        </mxCell>
      </root>
    </mxGraphModel>
  </diagram>
</mxfile>
